<svg xmlns="http://www.w3.org/2000/svg" width="140" height="70" viewBox="0 0 140 70">
  <!-- Golden snitch hero decoration. -->
  <defs>
    <radialGradient id="ball" cx="0.35" cy="0.3" r="0.9">
      <stop offset="0" stop-color="#fbe9a6"/>
      <stop offset="0.55" stop-color="#d4a94e"/>
      <stop offset="1" stop-color="#8a6220"/>
    </radialGradient>
  </defs>
  <!-- wings -->
  <g fill="none" stroke="rgba(238,232,214,0.9)" stroke-width="2.4" stroke-linecap="round">
    <path d="M54 32 C40 18 24 10 8 12"/>
    <path d="M55 37 C42 28 28 22 14 22"/>
    <path d="M56 42 C46 37 36 33 26 32"/>
    <path d="M86 32 C100 18 116 10 132 12"/>
    <path d="M85 37 C98 28 112 22 126 22"/>
    <path d="M84 42 C94 37 104 33 114 32"/>
  </g>
  <g fill="none" stroke="rgba(238,232,214,0.45)" stroke-width="1.2" stroke-linecap="round">
    <path d="M52 34 C40 24 28 16 14 16"/>
    <path d="M88 34 C100 24 112 16 126 16"/>
  </g>
  <!-- ball -->
  <circle cx="70" cy="38" r="17" fill="url(#ball)" stroke="#6d5122" stroke-width="1.6"/>
  <path d="M53.8 34 A17 17 0 0 1 86.2 34" fill="none" stroke="rgba(109,81,34,0.75)" stroke-width="1.4"/>
  <path d="M53.8 42 A17 17 0 0 0 86.2 42" fill="none" stroke="rgba(109,81,34,0.75)" stroke-width="1.4"/>
  <circle cx="70" cy="38" r="4.6" fill="none" stroke="rgba(109,81,34,0.7)" stroke-width="1.3"/>
  <circle cx="63.5" cy="31" r="3.4" fill="rgba(255,248,224,0.75)"/>
</svg>
